<svg width="611" height="611" viewBox="0 0 611 611" fill="none" xmlns="http://www.w3.org/2000/svg">
<g clip-path="url(#clip0_264_2989)">
<path d="M432.453 611H178.548C178.467 610.796 178.44 610.538 178.29 610.389C157.774 589.825 137.258 569.269 116.722 548.726C85.0788 517.069 53.429 485.412 21.752 453.783C14.5626 446.607 7.25097 439.56 -0.00634766 432.452C-0.00634766 347.815 -0.00634766 263.185 -0.00634766 178.548C0.828686 177.787 1.69087 177.061 2.48517 176.26C46.0291 132.716 89.5663 89.1788 133.097 45.6145C148.27 30.4346 163.402 15.2071 178.548 0C263.185 0 347.816 0 432.453 0C433.159 0.862189 433.804 1.78548 434.591 2.57299C460.769 28.7849 486.967 54.9764 513.159 81.1747C543.342 111.365 573.519 141.555 603.723 171.732C606.072 174.081 608.577 176.28 611.007 178.555V432.459C610.145 433.124 609.195 433.708 608.427 434.475C555.617 487.245 502.813 540.022 450.043 592.826C444.082 598.787 438.318 604.938 432.459 611.007L432.453 611ZM305.67 23.0754C268.902 23.0754 232.133 23.1705 195.364 22.96C190.347 22.9329 186.899 24.3042 183.314 27.9091C132.187 79.2942 80.9444 130.564 29.5185 181.65C24.8342 186.307 22.8994 190.815 22.9197 197.475C23.1709 271.352 23.0691 345.229 23.1573 419.098C23.1573 420.809 23.7683 422.995 24.9021 424.163C34.6985 434.197 44.6849 444.048 54.5967 453.959C98.419 497.788 142.241 541.618 186.023 585.487C187.754 587.218 189.519 587.938 191.983 587.911C203.633 587.789 215.29 587.85 226.939 587.85C290.972 587.85 355.005 587.85 419.038 587.762C420.749 587.762 422.948 587.151 424.096 586.003C477.911 532.33 531.625 478.562 585.413 424.862C587.171 423.104 587.891 421.434 587.884 418.976C587.83 343.294 587.837 267.604 587.918 191.922C587.918 189.267 586.968 187.502 585.196 185.73C531.815 132.424 478.454 79.1041 425.168 25.7027C423.227 23.7611 421.366 23.0143 418.685 23.0143C381.013 23.089 343.342 23.0619 305.663 23.0619L305.67 23.0754Z" fill="#EC1B24"/>
<path d="M305.67 23.0753C343.341 23.0753 381.013 23.1024 418.691 23.0278C421.373 23.0278 423.233 23.7677 425.174 25.7162C478.46 79.1108 531.821 132.437 585.202 185.744C586.974 187.516 587.931 189.281 587.924 191.935C587.843 267.618 587.836 343.307 587.89 418.99C587.89 421.447 587.178 423.117 585.419 424.876C531.631 478.569 477.917 532.344 424.102 586.017C422.948 587.164 420.755 587.775 419.044 587.775C355.011 587.863 290.978 587.856 226.946 587.863C215.296 587.863 203.639 587.802 191.99 587.924C189.525 587.952 187.76 587.232 186.029 585.501C142.247 541.631 98.4252 497.802 54.6029 453.973C44.6843 444.054 34.6979 434.21 24.9083 424.176C23.7678 423.009 23.1636 420.829 23.1636 419.112C23.0753 345.235 23.1771 271.358 22.9259 197.489C22.9056 190.829 24.8404 186.321 29.5247 181.664C80.9438 130.564 132.186 79.2941 183.313 27.909C186.898 24.3041 190.347 22.9327 195.364 22.9599C232.132 23.1703 268.901 23.0753 305.67 23.0753ZM305.575 38.0244C269.824 38.0244 234.074 38.0448 198.324 37.9769C195.88 37.9769 194.135 38.6286 192.39 40.3802C141.65 91.2154 90.842 141.983 40.129 192.838C38.9545 194.019 38.1195 196.131 38.1127 197.808C38.0176 269.532 38.0109 341.257 38.1263 412.982C38.1263 414.747 39.0767 416.946 40.3327 418.202C91.0389 469.065 141.827 519.859 192.682 570.572C193.945 571.828 196.151 572.785 197.923 572.785C269.648 572.894 341.372 572.894 413.097 572.799C414.767 572.799 416.865 571.903 418.053 570.715C468.976 519.927 519.825 469.078 570.606 418.148C571.862 416.892 572.799 414.679 572.806 412.914C572.914 341.304 572.907 269.688 572.806 198.079C572.806 196.301 571.943 194.053 570.701 192.804C520.069 142.023 469.336 91.3376 418.684 40.577C416.743 38.6286 414.821 37.9701 412.153 37.9769C376.627 38.0584 341.108 38.0312 305.581 38.0312L305.575 38.0244Z" fill="#FDF9F8"/>
<path d="M305.574 38.0246C341.101 38.0246 376.62 38.0517 412.146 37.9703C414.815 37.9703 416.729 38.622 418.677 40.5704C469.329 91.3309 520.063 142.017 570.694 192.798C571.937 194.047 572.799 196.294 572.799 198.073C572.907 269.682 572.907 341.298 572.799 412.907C572.799 414.672 571.855 416.885 570.599 418.141C519.825 469.071 468.97 519.927 418.046 570.708C416.858 571.896 414.76 572.792 413.09 572.792C341.365 572.894 269.641 572.894 197.916 572.778C196.144 572.778 193.938 571.821 192.675 570.565C141.82 519.852 91.032 469.058 40.3258 418.195C39.0766 416.94 38.1262 414.74 38.1194 412.975C38.0108 341.25 38.0108 269.526 38.1058 197.801C38.1058 196.124 38.9408 194.013 40.1221 192.832C90.8351 141.969 141.643 91.2019 192.383 40.3735C194.135 38.622 195.873 37.9635 198.317 37.9703C234.067 38.0449 269.817 38.0178 305.568 38.0178L305.574 38.0246Z" fill="#EC1B24"/>
</g>
<defs>
<clipPath id="clip0_264_2989">
<rect width="611" height="611" fill="white"/>
</clipPath>
</defs>
</svg>
