<svg width="272" height="267" viewBox="0 0 272 267" fill="none" xmlns="http://www.w3.org/2000/svg">
<mask id="path-1-inside-1_37_1375" fill="white">
<path d="M135.955 87.0531C60.928 87.0531 0 107.868 0 133.5C0 159.232 60.9167 179.947 136.045 179.947C211.185 179.947 272 159.232 272 133.5C272 107.868 211.174 87.0531 135.955 87.0531ZM136.045 91.0804C208.477 91.0804 267.297 110.126 267.297 133.5C267.297 156.974 208.477 175.92 136.057 175.92C63.512 175.92 4.794 156.974 4.794 133.5C4.794 110.137 63.5233 91.0804 136.045 91.0804ZM100.459 98.6899C98.532 98.6899 96.5827 98.7788 94.6333 98.9346C81.7247 100.014 69.326 107.178 69.326 118.081C69.326 123.588 73.3267 128.093 79.526 127.904C86.836 127.704 92.8313 121.908 95.9367 114.743C97.036 112.095 94.8373 110.916 93.84 112.485C92.0267 115.333 89.3293 117.491 86.53 118.871C83.13 120.439 79.4353 120.05 78.3247 117.302C76.8287 113.375 80.0247 107.679 87.4367 104.92C98.1353 101.093 109.242 103.652 120.043 105.61C120.145 105.61 120.745 105.91 120.247 106.199C118.343 107.178 116.439 108.068 113.447 110.527C111.339 112.385 108.539 114.754 106.443 117.302C104.335 119.861 102.839 122.108 100.833 124.667C100.538 125.056 100.243 125.056 100.243 125.056C95.336 125.835 90.6327 126.436 86.2353 129.373C85.3287 129.962 85.034 131.153 85.5327 131.931C86.0313 132.71 87.1307 132.821 87.9353 132.221C90.6327 130.162 93.432 129.272 96.6393 129.183C96.73 129.183 96.832 129.183 96.832 129.272C96.9453 129.272 96.9453 129.384 96.832 129.473C92.038 136.059 90.8253 137.527 87.2327 141.554C85.4086 143.525 83.5069 145.425 81.532 147.25C73.3267 154.704 64.532 154.615 61.3247 149.898C59.4207 147.05 59.7267 144.113 60.928 141.655C62.5147 138.606 65.518 136.448 68.1247 135.169C69.122 134.679 69.428 133.5 68.4307 132.421C67.83 131.642 66.3227 131.531 65.2233 131.731C61.1636 132.657 57.5855 135 55.1561 138.324C52.7268 141.648 51.6121 145.727 52.02 149.798C52.8133 158.053 59.7267 162.859 67.626 162.759C73.8253 162.67 79.73 160.801 86.734 153.825C93.33 147.15 99.4273 137.327 105.037 128.193C105.241 127.904 105.343 127.704 106.239 127.604C109.752 127.214 115.045 126.725 118.343 126.525C119.045 126.436 119.249 126.424 119.544 126.825C120.337 127.904 121.743 128.783 122.751 129.384C123.352 129.673 123.545 129.773 123.941 129.773C124.451 129.773 124.848 129.573 125.041 129.272C125.449 128.883 125.551 128.394 125.347 128.104C125.143 127.704 122.853 126.436 122.74 125.935C122.649 125.646 123.046 125.546 123.046 125.546C124.026 125.28 124.939 124.82 125.731 124.195C126.522 123.569 127.174 122.791 127.647 121.908C128.747 119.85 128.849 117.202 126.945 115.722C125.245 114.354 122.751 114.643 120.643 116.412C119.73 117.237 119.034 118.267 118.616 119.415C118.197 120.562 118.069 121.791 118.241 122.998C118.354 123.387 118.241 123.588 117.742 123.588C114.648 123.777 111.645 123.877 108.335 124.077C108.041 124.077 108.041 123.966 108.143 123.777C111.939 117.302 117.64 112.685 123.941 108.068C124.349 107.768 124.247 107.178 124.247 106.689C135.649 109.136 146.653 113.664 158.463 113.564C163.257 113.564 167.96 112.874 172.459 110.427C176.369 108.268 177.967 106.399 178.069 104.341C178.16 102.962 177.163 102.083 175.769 102.372C163.869 105.12 152.456 105.02 140.556 103.652C126.979 102.016 113.957 98.6454 100.447 98.6899H100.459ZM177.865 102.962C177.865 103.062 177.967 103.062 177.967 103.151C177.967 103.062 177.865 102.962 177.865 102.962ZM124.372 117.513C124.655 117.513 124.916 117.602 125.143 117.791C125.743 118.281 125.449 119.649 124.848 120.539C124.194 121.573 123.152 122.313 121.947 122.597C121.743 122.709 121.55 122.597 121.448 122.108C121.351 121.368 121.436 120.616 121.696 119.916C121.957 119.215 122.385 118.586 122.944 118.081C123.335 117.729 123.842 117.527 124.372 117.513ZM212.976 117.691C212.477 117.691 212.183 117.791 211.877 118.281C211.083 119.85 200.883 134.779 198.968 137.727C198.673 138.217 198.277 138.117 198.175 137.616C197.971 135.858 196.475 133.889 194.072 133.01C192.325 132.326 190.42 132.122 188.564 132.421C185.277 132.81 182.263 134.579 179.667 136.537C175.667 139.485 172.267 143.323 167.858 146.171C165.467 147.729 162.157 149.019 159.959 147.061C157.953 145.281 158.157 141.254 161.262 138.117C161.557 137.816 161.965 138.017 161.863 138.317C161.703 139.002 161.73 139.717 161.941 140.389C162.152 141.06 162.539 141.666 163.064 142.144C164.356 143.323 166.26 143.423 167.96 142.634C168.879 142.158 169.668 141.471 170.26 140.633C170.852 139.794 171.229 138.828 171.36 137.816C171.464 137.078 171.413 136.326 171.209 135.607C171.006 134.888 170.654 134.218 170.176 133.639C169.698 133.059 169.104 132.581 168.43 132.236C167.757 131.891 167.018 131.685 166.26 131.631C163.767 131.442 161.262 132.321 158.961 134.29C157.822 135.168 156.841 136.229 156.06 137.427C155.856 137.816 155.459 137.816 155.459 137.327C155.561 133.3 153.861 130.952 150.45 130.852C147.753 130.741 144.953 132.221 142.743 133.889C140.303 136.01 138.03 138.308 135.943 140.765C135.649 141.065 135.456 141.065 135.354 140.475C135.312 137.956 134.622 135.487 133.348 133.3C132.849 132.621 131.943 132.321 131.149 132.81C130.753 133.01 129.551 133.589 128.543 134.29C128.044 134.679 127.942 135.18 128.146 135.847C129.347 139.886 129.143 144.503 127.443 148.33C125.947 151.867 122.944 155.105 119.442 156.184C117.141 156.874 114.739 156.573 113.243 154.515C111.237 151.767 112.041 146.95 115.045 142.923C117.742 139.396 121.55 137.138 125.449 135.758C125.947 135.558 125.947 135.269 125.845 134.868C125.644 134.238 125.409 133.618 125.143 133.01C124.746 132.12 123.851 131.931 122.536 132.031C119.795 132.391 117.149 133.259 114.739 134.59C108.245 138.017 104.935 144.692 103.439 148.229C102.737 149.898 102.136 150.977 101.433 151.956C100.436 153.236 99.1327 154.415 96.7413 156.473C96.5373 156.673 96.3333 157.063 96.5373 157.463C97.0282 158.325 97.6342 159.118 98.3393 159.822C98.736 160.011 99.1327 159.71 99.3367 159.621C101.044 158.484 102.591 157.129 103.938 155.594C104.244 155.205 104.641 155.394 104.845 155.984C105.282 157.559 106.101 159.006 107.232 160.204C108.363 161.401 109.772 162.312 111.339 162.859C117.345 164.828 123.545 161.969 128.248 156.963C131.251 153.825 132.351 151.767 133.45 150.399C135.354 148.029 139.253 142.723 143.763 139.385C145.463 138.117 147.356 137.227 148.353 137.828C149.147 138.317 149.453 139.496 148.149 141.744C143.548 150.087 136.646 159.822 135.456 162.269C135.252 162.67 135.456 162.959 135.853 162.959H142.857C143.253 162.959 143.355 162.759 143.548 162.57C147.152 157.063 150.461 151.867 154.054 146.461C154.258 146.171 154.462 146.36 154.462 146.561C154.532 147.993 154.907 149.395 155.561 150.677C156.123 151.585 156.916 152.334 157.862 152.851C158.807 153.368 159.874 153.635 160.956 153.625C162.474 153.658 163.98 153.358 165.365 152.746C166.861 152.157 168.062 151.467 168.957 150.877C169.467 150.488 169.558 151.178 169.558 151.178C168.765 155.494 169.762 160.701 174.159 162.759C179.463 165.317 185.266 161.68 188.564 158.531C188.87 158.242 189.267 158.242 189.267 158.932C189.341 160.338 189.948 161.667 190.967 162.659C193.766 165.418 199.376 164.327 205.077 160.011C208.681 157.263 212.477 153.336 215.877 149.309C215.979 149.108 216.081 148.919 215.877 148.619C215.379 148.129 214.574 147.44 214.075 146.95C213.883 146.761 213.475 146.85 213.282 146.95C209.769 150.187 206.573 154.026 202.073 157.074C200.577 158.153 198.073 158.932 196.973 157.563C196.577 156.974 196.577 156.184 196.973 155.205C198.469 151.756 219.583 120.15 220.683 118.27C220.875 117.981 220.683 117.691 220.286 117.691H212.976ZM190.74 137.494C191.284 137.494 191.805 137.605 192.27 137.828C194.877 138.996 194.072 141.944 192.871 144.302C192.769 144.503 192.769 144.592 192.769 144.792C192.769 144.992 193.177 145.281 193.471 145.381C193.573 145.381 193.675 145.482 193.471 145.771C192.565 147.64 191.771 148.719 190.672 150.388C189.659 151.823 188.446 153.111 187.068 154.215C184.971 155.995 181.968 157.853 179.565 156.573C178.466 155.984 177.967 154.515 178.069 153.336C178.16 149.898 179.656 146.461 182.467 143.023C185.311 139.596 188.36 137.516 190.74 137.494Z"/>
</mask>
<path d="M135.955 87.0531C60.928 87.0531 0 107.868 0 133.5C0 159.232 60.9167 179.947 136.045 179.947C211.185 179.947 272 159.232 272 133.5C272 107.868 211.174 87.0531 135.955 87.0531ZM136.045 91.0804C208.477 91.0804 267.297 110.126 267.297 133.5C267.297 156.974 208.477 175.92 136.057 175.92C63.512 175.92 4.794 156.974 4.794 133.5C4.794 110.137 63.5233 91.0804 136.045 91.0804ZM100.459 98.6899C98.532 98.6899 96.5827 98.7788 94.6333 98.9346C81.7247 100.014 69.326 107.178 69.326 118.081C69.326 123.588 73.3267 128.093 79.526 127.904C86.836 127.704 92.8313 121.908 95.9367 114.743C97.036 112.095 94.8373 110.916 93.84 112.485C92.0267 115.333 89.3293 117.491 86.53 118.871C83.13 120.439 79.4353 120.05 78.3247 117.302C76.8287 113.375 80.0247 107.679 87.4367 104.92C98.1353 101.093 109.242 103.652 120.043 105.61C120.145 105.61 120.745 105.91 120.247 106.199C118.343 107.178 116.439 108.068 113.447 110.527C111.339 112.385 108.539 114.754 106.443 117.302C104.335 119.861 102.839 122.108 100.833 124.667C100.538 125.056 100.243 125.056 100.243 125.056C95.336 125.835 90.6327 126.436 86.2353 129.373C85.3287 129.962 85.034 131.153 85.5327 131.931C86.0313 132.71 87.1307 132.821 87.9353 132.221C90.6327 130.162 93.432 129.272 96.6393 129.183C96.73 129.183 96.832 129.183 96.832 129.272C96.9453 129.272 96.9453 129.384 96.832 129.473C92.038 136.059 90.8253 137.527 87.2327 141.554C85.4086 143.525 83.5069 145.425 81.532 147.25C73.3267 154.704 64.532 154.615 61.3247 149.898C59.4207 147.05 59.7267 144.113 60.928 141.655C62.5147 138.606 65.518 136.448 68.1247 135.169C69.122 134.679 69.428 133.5 68.4307 132.421C67.83 131.642 66.3227 131.531 65.2233 131.731C61.1636 132.657 57.5855 135 55.1561 138.324C52.7268 141.648 51.6121 145.727 52.02 149.798C52.8133 158.053 59.7267 162.859 67.626 162.759C73.8253 162.67 79.73 160.801 86.734 153.825C93.33 147.15 99.4273 137.327 105.037 128.193C105.241 127.904 105.343 127.704 106.239 127.604C109.752 127.214 115.045 126.725 118.343 126.525C119.045 126.436 119.249 126.424 119.544 126.825C120.337 127.904 121.743 128.783 122.751 129.384C123.352 129.673 123.545 129.773 123.941 129.773C124.451 129.773 124.848 129.573 125.041 129.272C125.449 128.883 125.551 128.394 125.347 128.104C125.143 127.704 122.853 126.436 122.74 125.935C122.649 125.646 123.046 125.546 123.046 125.546C124.026 125.28 124.939 124.82 125.731 124.195C126.522 123.569 127.174 122.791 127.647 121.908C128.747 119.85 128.849 117.202 126.945 115.722C125.245 114.354 122.751 114.643 120.643 116.412C119.73 117.237 119.034 118.267 118.616 119.415C118.197 120.562 118.069 121.791 118.241 122.998C118.354 123.387 118.241 123.588 117.742 123.588C114.648 123.777 111.645 123.877 108.335 124.077C108.041 124.077 108.041 123.966 108.143 123.777C111.939 117.302 117.64 112.685 123.941 108.068C124.349 107.768 124.247 107.178 124.247 106.689C135.649 109.136 146.653 113.664 158.463 113.564C163.257 113.564 167.96 112.874 172.459 110.427C176.369 108.268 177.967 106.399 178.069 104.341C178.16 102.962 177.163 102.083 175.769 102.372C163.869 105.12 152.456 105.02 140.556 103.652C126.979 102.016 113.957 98.6454 100.447 98.6899H100.459ZM177.865 102.962C177.865 103.062 177.967 103.062 177.967 103.151C177.967 103.062 177.865 102.962 177.865 102.962ZM124.372 117.513C124.655 117.513 124.916 117.602 125.143 117.791C125.743 118.281 125.449 119.649 124.848 120.539C124.194 121.573 123.152 122.313 121.947 122.597C121.743 122.709 121.55 122.597 121.448 122.108C121.351 121.368 121.436 120.616 121.696 119.916C121.957 119.215 122.385 118.586 122.944 118.081C123.335 117.729 123.842 117.527 124.372 117.513ZM212.976 117.691C212.477 117.691 212.183 117.791 211.877 118.281C211.083 119.85 200.883 134.779 198.968 137.727C198.673 138.217 198.277 138.117 198.175 137.616C197.971 135.858 196.475 133.889 194.072 133.01C192.325 132.326 190.42 132.122 188.564 132.421C185.277 132.81 182.263 134.579 179.667 136.537C175.667 139.485 172.267 143.323 167.858 146.171C165.467 147.729 162.157 149.019 159.959 147.061C157.953 145.281 158.157 141.254 161.262 138.117C161.557 137.816 161.965 138.017 161.863 138.317C161.703 139.002 161.73 139.717 161.941 140.389C162.152 141.06 162.539 141.666 163.064 142.144C164.356 143.323 166.26 143.423 167.96 142.634C168.879 142.158 169.668 141.471 170.26 140.633C170.852 139.794 171.229 138.828 171.36 137.816C171.464 137.078 171.413 136.326 171.209 135.607C171.006 134.888 170.654 134.218 170.176 133.639C169.698 133.059 169.104 132.581 168.43 132.236C167.757 131.891 167.018 131.685 166.26 131.631C163.767 131.442 161.262 132.321 158.961 134.29C157.822 135.168 156.841 136.229 156.06 137.427C155.856 137.816 155.459 137.816 155.459 137.327C155.561 133.3 153.861 130.952 150.45 130.852C147.753 130.741 144.953 132.221 142.743 133.889C140.303 136.01 138.03 138.308 135.943 140.765C135.649 141.065 135.456 141.065 135.354 140.475C135.312 137.956 134.622 135.487 133.348 133.3C132.849 132.621 131.943 132.321 131.149 132.81C130.753 133.01 129.551 133.589 128.543 134.29C128.044 134.679 127.942 135.18 128.146 135.847C129.347 139.886 129.143 144.503 127.443 148.33C125.947 151.867 122.944 155.105 119.442 156.184C117.141 156.874 114.739 156.573 113.243 154.515C111.237 151.767 112.041 146.95 115.045 142.923C117.742 139.396 121.55 137.138 125.449 135.758C125.947 135.558 125.947 135.269 125.845 134.868C125.644 134.238 125.409 133.618 125.143 133.01C124.746 132.12 123.851 131.931 122.536 132.031C119.795 132.391 117.149 133.259 114.739 134.59C108.245 138.017 104.935 144.692 103.439 148.229C102.737 149.898 102.136 150.977 101.433 151.956C100.436 153.236 99.1327 154.415 96.7413 156.473C96.5373 156.673 96.3333 157.063 96.5373 157.463C97.0282 158.325 97.6342 159.118 98.3393 159.822C98.736 160.011 99.1327 159.71 99.3367 159.621C101.044 158.484 102.591 157.129 103.938 155.594C104.244 155.205 104.641 155.394 104.845 155.984C105.282 157.559 106.101 159.006 107.232 160.204C108.363 161.401 109.772 162.312 111.339 162.859C117.345 164.828 123.545 161.969 128.248 156.963C131.251 153.825 132.351 151.767 133.45 150.399C135.354 148.029 139.253 142.723 143.763 139.385C145.463 138.117 147.356 137.227 148.353 137.828C149.147 138.317 149.453 139.496 148.149 141.744C143.548 150.087 136.646 159.822 135.456 162.269C135.252 162.67 135.456 162.959 135.853 162.959H142.857C143.253 162.959 143.355 162.759 143.548 162.57C147.152 157.063 150.461 151.867 154.054 146.461C154.258 146.171 154.462 146.36 154.462 146.561C154.532 147.993 154.907 149.395 155.561 150.677C156.123 151.585 156.916 152.334 157.862 152.851C158.807 153.368 159.874 153.635 160.956 153.625C162.474 153.658 163.98 153.358 165.365 152.746C166.861 152.157 168.062 151.467 168.957 150.877C169.467 150.488 169.558 151.178 169.558 151.178C168.765 155.494 169.762 160.701 174.159 162.759C179.463 165.317 185.266 161.68 188.564 158.531C188.87 158.242 189.267 158.242 189.267 158.932C189.341 160.338 189.948 161.667 190.967 162.659C193.766 165.418 199.376 164.327 205.077 160.011C208.681 157.263 212.477 153.336 215.877 149.309C215.979 149.108 216.081 148.919 215.877 148.619C215.379 148.129 214.574 147.44 214.075 146.95C213.883 146.761 213.475 146.85 213.282 146.95C209.769 150.187 206.573 154.026 202.073 157.074C200.577 158.153 198.073 158.932 196.973 157.563C196.577 156.974 196.577 156.184 196.973 155.205C198.469 151.756 219.583 120.15 220.683 118.27C220.875 117.981 220.683 117.691 220.286 117.691H212.976ZM190.74 137.494C191.284 137.494 191.805 137.605 192.27 137.828C194.877 138.996 194.072 141.944 192.871 144.302C192.769 144.503 192.769 144.592 192.769 144.792C192.769 144.992 193.177 145.281 193.471 145.381C193.573 145.381 193.675 145.482 193.471 145.771C192.565 147.64 191.771 148.719 190.672 150.388C189.659 151.823 188.446 153.111 187.068 154.215C184.971 155.995 181.968 157.853 179.565 156.573C178.466 155.984 177.967 154.515 178.069 153.336C178.16 149.898 179.656 146.461 182.467 143.023C185.311 139.596 188.36 137.516 190.74 137.494Z" fill="white" stroke="white" stroke-width="6" mask="url(#path-1-inside-1_37_1375)"/>
</svg>
