<?xml version="1.0" encoding="UTF-8"?>
<svg id="Layer_2" xmlns="http://www.w3.org/2000/svg" viewBox="0 0 521.77 554">
  <defs>
    <style>
      .cls-1 {
        fill: #073799;
      }
    </style>
  </defs>
  <g id="Layer_1-2" data-name="Layer_1">
    <g>
      <path class="cls-1" d="M308.77,554h-180c19.91-40.53,29.12-83.34,27.9-128.49-1.03-38.36-12.63-72.38-40.78-99.38-14.29-13.7-29.44-26.5-44.35-39.53-17.7-15.46-35.42-30.91-48.13-51.03-9.5-15.04-14.96-31.21-12.01-49.3,3.74-22.94,16.46-40.35,34.28-54.41,17.33-13.68,37.35-22.23,57.86-29.8,15.43-5.7,30.94-11.22,46.18-17.41,5.68-2.31,11.21-6.18,10.96-13.48-.25-7.4-6.2-10.3-12.06-12.42-12.96-4.69-26.16-8.73-39.08-13.53-5.24-1.94-10.35-4.67-14.9-7.91-6.36-4.54-6.44-10.52-.34-15.34,3.59-2.83,7.75-5.5,12.08-6.74,13.55-3.87,27.33-6.93,40.95-10.53C151.9,3.48,156.29,1.58,160.77,0c20,0,40,0,60,0-2.57,2.39-4.76,5.97-7.79,6.95-12.92,4.17-26.12,7.48-39.16,11.3-4.06,1.19-9.39,2.12-9.48,7.4-.1,5.22,5.09,6.65,9.14,7.86,11.13,3.32,22.39,6.19,33.57,9.32,13.78,3.87,27.47,8,39.49,16.16,18.67,12.68,19.39,29.39.96,42.17-10.32,7.15-21.94,12.44-33.03,18.46-12.54,6.8-25.53,12.86-37.6,20.41-8.6,5.38-11.77,14.49-11.14,24.76.71,11.48,6.31,20.55,15.16,27,10.99,8.01,22.62,15.2,34.37,22.06,27.27,15.92,55.42,30.42,82.05,47.33,38.22,24.28,70.64,55.32,98.48,91.07,29.62,38.04,53.47,79.54,72.63,123.64,11.12,25.6,20.29,52.04,30.34,78.11h-174c-1.35-20.87-2.66-41.74-4.16-62.59-.1-1.44-1.43-3.78-2.52-3.99-3.95-.78-8.04-.83-12.31-1.17.74,9.45,1.71,18.19,2.05,26.97.53,13.59.64,27.19.93,40.79ZM298.12,398.85c-6.14-12.57-12.14-25.15-18.43-37.57-3.75-7.39-5.89-7.82-13.05-4.02,5.3,11.68,10.75,23.27,15.83,35.01,4.02,9.28,3.82,9.37,13.89,7.69.15-.03.28-.17,1.76-1.11ZM231.79,302.33c-1.46-1.61-2.54-3.11-3.91-4.26-6.86-5.73-14.12-11.03-20.61-17.14-4.06-3.82-7.01-2.96-10.95.27,1.54,1.32,2.86,2.49,4.22,3.62,6.4,5.31,13.17,10.24,19.1,16.04,3.89,3.8,7.29,4.58,12.15,1.48ZM124.72,232.45c7.41,5.19,14.58,9.97,21.46,15.13,3.78,2.83,7,3.08,10.62-.53-7.35-5.06-14.76-9.8-21.73-15.11-3.67-2.8-6.49-2.28-10.35.51ZM103.86,203.49c-2.08-4.12-4.56-7.78-5.82-11.83-1.65-5.31-4.6-5.02-9.21-3.21,1.87,4.18,3.68,8.07,5.35,12,1.97,4.63,5.03,5.77,9.68,3.03ZM88.92,165.72c3.01-1.34,5.92-1.69,6.77-3.2,1.89-3.38,2.76-7.35,4.05-11.1-6.61-1.35-8.5.93-10.81,14.3ZM111.15,132.61c7.62,1.19,11.54-5.81,17.51-8.46-7.7-1.43-12.04,4.64-17.51,8.46ZM171.92,104.91c-6.93-.01-12.69,3.4-18.61,6.39,6.97.31,12.69-3.43,18.61-6.39ZM192.7,93.83c5.68,1.82,8.49-2.88,13.21-5.41-6.95-2.55-8.94,4.01-13.21,5.41ZM206.26,71.58c1.57,2.32,2.79,4.14,4.02,5.96.71-.88,1.96-1.72,2.02-2.63.18-2.82-.67-5.04-6.04-3.33ZM195.83,56.05c-.3.64-.6,1.27-.9,1.91,2.87,1.54,5.75,3.07,8.62,4.61.31-.63.61-1.26.92-1.89-2.88-1.54-5.76-3.09-8.64-4.63Z"/>
      <path class="cls-1" d="M508.77,554c-5.61-15.29-10.75-30.76-16.9-45.83-20.84-51.05-46.62-99.43-79.36-143.94-37.67-51.21-84.5-92.06-139.88-123.1-20.9-11.71-42.4-22.35-63.12-34.36-10.56-6.12-20.82-13.28-29.73-21.58-11.66-10.87-13.18-28.11-4.4-39.01,3.76-4.67,8.84-8.76,14.13-11.6,13.04-6.99,26.73-12.75,39.8-19.69,8.62-4.58,17.18-9.64,24.73-15.75,13.33-10.8,13.37-24.18.87-35.85-3.56-3.32-7.74-5.99-11.43-9.16,10.07,4.91,19.35,10.92,22.94,22.32,2.39,7.58-.26,14.42-5.72,20.13-10,10.46-22.82,16.51-35.56,22.7-10.75,5.22-21.61,10.26-32.15,15.88-27.24,14.52-21.01,41.6-4,53.74,14.54,10.38,30.18,19.39,45.98,27.76,32.21,17.07,64.27,34.24,93.74,55.92,36.22,26.65,67.45,58.2,94.22,94.25,40.34,54.35,70.71,114.05,94.81,177.11,1.18,3.08,2.67,6.03,4.02,9.05-4.33.33-8.67.67-13,1Z"/>
      <path class="cls-1" d="M103.77,554c18.12-31.17,29.6-64.46,33.16-100.51,1.91-19.32,2.36-38.51-.7-57.7-4.67-29.27-20.02-52.53-41.3-72.27-15.25-14.15-30.92-27.85-46.23-41.92-14-12.87-27.02-26.58-36.9-43.04-19.65-32.75-13.74-64.91,10.18-92.37,15.58-17.89,35.81-29.07,57.31-38.06,11.02-4.61,22.42-8.32,33.66-12.4,1-.36,2.08-.47,3.24-.23-11.16,4.26-22.45,8.2-33.45,12.83-21.5,9.05-41.47,20.45-57.02,38.44C1.5,174.79-.95,207.71,19.07,238.85c12.49,19.43,29.52,34.59,46.51,49.86,16.58,14.9,33.52,29.51,48.99,45.51,25.01,25.88,33.35,58.26,33.59,93.46.3,43.14-9.17,83.85-28.93,122.19-.66,1.29-.98,2.75-1.46,4.13h-14Z"/>
      <path class="cls-1" d="M143.37,57.67c3.63,2.1,7.58,3.81,10.83,6.4,4.71,3.76,5.03,10.34.22,14.38-4.36,3.67-9.6,6.5-14.81,8.89-6.08,2.79-12.57,4.69-19.22,6.02,6.55-2.52,13.18-4.85,19.61-7.64,3.62-1.57,7.27-3.48,10.25-6.01,6.64-5.62,5.86-13.03-1.5-17.69-1.92-1.22-3.95-2.25-5.93-3.37.18-.33.36-.66.55-.98Z"/>
      <path class="cls-1" d="M91.77,20.61c-6.23,10.09-5.83,11.93,3.4,20.19-4.43-1.71-8.39-4.18-9.52-9.21-1.07-4.76,1.72-7.88,6.12-10.98Z"/>
    </g>
  </g>
</svg>