<svg width="615" height="755" viewBox="0 0 615 755" fill="none" xmlns="http://www.w3.org/2000/svg">
<g clip-path="url(#clip0_2_208)">
<path d="M251.75 868.995L104.99 772.375C155.095 731.613 198.382 682.213 235.12 624.245C266.339 574.997 285.312 525.585 284.925 476.201C284.724 451.139 283.069 426.758 281.802 402.215C280.291 373.089 278.755 343.964 285.207 311.601C290.03 287.41 299.092 263.953 316.616 242.573C338.837 215.46 363.758 200.187 390.037 191.905C415.6 183.841 439.068 183.734 462.117 185.134C479.461 186.181 496.72 187.499 514.319 187.822C520.88 187.939 528.623 185.994 534.52 176.593C540.501 167.066 538.073 160.191 535.067 154.354C528.42 141.444 521.034 129.23 514.511 116.201C511.86 110.926 509.976 104.718 508.974 98.1624C507.582 88.9853 512.515 81.3513 521.516 78.5071C526.808 76.8417 532.432 75.6854 536.998 76.4355C551.28 78.7962 565.073 82.3086 579.186 85.0497C583.932 85.9541 589.099 85.8986 594.072 86.2977C610.379 97.0333 626.685 107.769 642.992 118.504C638.899 120.159 634.122 123.528 630.832 123.145C616.813 121.504 603.285 118.62 589.46 116.469C585.156 115.801 580.033 114.12 575.547 120.774C571.103 127.347 574.139 131.948 576.43 135.658C582.73 145.847 589.512 155.534 596.012 165.509C604.013 177.818 611.723 190.409 614.704 207.22C619.329 233.338 605.951 254.936 580.244 261.266C565.854 264.803 551.959 265.281 537.886 266.97C521.979 268.871 506.323 269.59 490.173 272.696C478.664 274.909 468.466 284.772 460.397 298.147C451.382 313.101 448.368 327.62 450.193 340.558C452.459 356.625 455.933 371.995 459.78 387.011C468.709 421.857 479.543 455.374 487.123 491.134C497.993 542.471 498.486 599.276 491.307 659.602C483.666 723.789 468.429 789.272 447.196 855.538C434.868 894.004 420.248 932.489 406.654 970.978L264.787 877.578C281.128 850.361 297.501 823.165 313.703 795.893C314.825 794.011 315.696 790.327 314.983 789.475C312.414 786.365 309.121 784.106 305.924 781.382C298.63 793.775 292.116 805.391 285.056 816.719C274.131 834.254 262.854 851.577 251.725 868.997L251.75 868.995ZM372.729 666.329C378.228 647.077 383.849 627.887 389.101 608.745C392.219 597.351 390.834 595.656 381.82 596.637C376.38 614.308 371.138 631.946 365.468 649.576C360.99 663.514 360.752 663.521 370.366 666.793C370.514 666.836 370.737 666.728 372.729 666.329ZM399.312 508.201C399.467 505.374 399.841 502.89 399.685 500.695C398.88 489.739 397.39 479.114 397.205 467.874C397.087 460.845 393.963 460.354 388.051 462.339C388.204 464.841 388.302 467.035 388.467 469.199C389.247 479.375 390.647 489.267 390.635 499.813C390.63 506.725 392.751 509.54 399.304 508.214L399.312 508.201ZM370.415 362.022C372.12 372.588 373.971 382.504 375.268 392.747C375.985 398.369 378.401 400.414 384.37 397.775C382.606 387.406 380.525 377.412 379.28 366.93C378.628 361.406 375.894 360.552 370.415 362.022ZM377.61 314.062C379.357 307.716 380.394 301.739 382.752 295.921C385.844 288.295 383.196 287.08 377.925 286.903C375.956 293.213 374.181 299.122 372.258 305.007C369.995 311.942 371.537 315.032 377.619 314.05L377.61 314.062ZM396.994 258.097C400.568 258.012 403.234 259.13 405.189 257.669C409.554 254.393 413.581 249.82 417.767 245.753C413.506 240.491 410.06 242.371 397.003 258.103L396.994 258.097ZM442.79 228C448.008 233.6 457.055 226.819 464.137 226.659C459.054 220.711 450.442 226.087 442.79 228ZM515.487 225.457C509.845 221.724 502.299 222.961 494.974 223.579C500.397 227.714 508.187 226.037 515.487 225.457ZM541.69 222.546C544.8 227.905 551.019 223.447 556.981 222.769C553.446 215.802 546.341 223.061 541.69 222.546ZM571.34 201.58C570.682 205.368 570.155 208.333 569.637 211.304C570.951 210.568 572.673 210.173 573.482 209.05C575.986 205.566 577.148 202.292 571.34 201.58ZM575.815 176.268C575.036 176.919 574.265 177.558 573.485 178.209C574.538 181.705 575.608 185.193 576.661 188.688C577.44 188.055 578.211 187.416 578.99 186.783C577.929 183.282 576.877 179.769 575.815 176.268Z" fill="#073799" fill-opacity="0.8"/>
<path d="M414.816 976.351C423.02 953.93 431.758 931.533 439.338 909.102C465.01 833.112 484.423 757.86 494.928 683.784C507.012 598.557 502.969 521.564 483.757 452.435C476.503 426.352 467.865 401.304 461.009 374.937C457.513 361.499 455.132 346.903 454.804 331.584C454.381 311.527 467.55 288.826 483.818 279.703C490.787 275.793 498.347 273.328 505.033 272.562C521.507 270.689 537.482 270.725 553.939 268.931C564.794 267.744 576.002 265.916 587.264 262.213C607.159 255.658 618.373 238.695 617.935 217.171C617.807 211.046 616.63 205.413 616.271 199.408C620.378 211.046 622.921 223.657 616.321 240.055C611.935 250.96 604.058 258.22 594.834 262.538C577.939 270.448 562.43 271.246 546.87 272.266C533.743 273.122 520.676 273.69 507.386 275.166C473.041 278.977 455.489 316.696 459.213 341.238C462.393 362.219 467.615 382.051 473.502 401.157C485.498 440.116 497.288 479.121 503.197 522.461C510.456 575.732 509.552 632.546 501.25 692.678C488.719 783.324 463.588 875.41 430.537 968.395C428.925 972.938 427.674 977.483 426.251 982.041C422.445 980.136 418.622 978.238 414.816 976.333L414.816 976.351Z" fill="#073799" fill-opacity="0.8"/>
<path d="M84.6069 758.956C125.43 729.115 162.612 693.018 195.642 649.167C213.345 625.667 229.75 601.548 243.293 575.546C263.947 535.883 270.87 498.117 270.017 461.637C269.409 435.488 268.082 409.686 267.358 383.608C266.699 359.755 267.541 335.363 273.242 309.165C284.591 257.044 316.286 219.392 358.738 197.374C386.392 183.027 412.229 179.694 437.272 179.823C450.11 179.886 462.505 181.296 475.079 182.15C476.195 182.23 477.168 182.67 477.913 183.597C465.254 183.014 452.756 181.956 439.918 181.928C414.825 181.876 389.016 185.628 361.303 200.118C318.138 222.686 288.629 263.16 278.927 313.435C272.872 344.805 274.088 373.19 275.179 401.694C276.245 429.508 277.847 457.147 277.088 485.762C275.851 532.039 255.59 577.619 226.368 622.431C190.56 677.355 148.816 723.949 100.664 762.012C99.0473 763.295 97.5662 764.976 96.0216 766.471L84.6069 758.956Z" fill="#073799" fill-opacity="0.8"/>
<path d="M531.689 150.165C532.894 154.779 534.685 159.07 535.171 164.102C535.869 171.404 530.63 179.928 523.332 182.475C516.71 184.793 510.073 185.573 503.828 185.81C496.539 186.088 489.659 185.016 483.126 183.135C490.572 183.452 497.925 184.053 505.5 183.963C509.763 183.913 514.335 183.448 518.879 181.836C528.99 178.266 534.547 168.441 532.44 158.575C531.894 155.995 531.1 153.598 530.422 151.114C530.844 150.791 531.267 150.469 531.689 150.165Z" fill="#073799" fill-opacity="0.8"/>
<path d="M520.59 75.4227C507.078 84.8869 505.866 87.4373 506.489 102.877C504.306 98.3285 503.142 93.0674 506.424 86.0757C509.53 79.459 514.412 76.996 520.59 75.4227Z" fill="#073799" fill-opacity="0.8"/>
</g>
<defs>
<clipPath id="clip0_2_208">
<rect width="509.333" height="841.979" fill="white" transform="translate(462.992) rotate(33.3591)"/>
</clipPath>
</defs>
</svg>
