<svg width="261" height="261" viewBox="0 0 261 261" fill="none" xmlns="http://www.w3.org/2000/svg">
<g clip-path="url(#clip0_75_4317)">
<path d="M130.501 145.822C138.962 145.822 145.822 138.962 145.822 130.501C145.822 122.039 138.962 115.18 130.501 115.18C122.039 115.18 115.18 122.039 115.18 130.501C115.18 138.962 122.039 145.822 130.501 145.822Z" fill="white"/>
<path d="M130.5 150.14C141.329 150.14 150.14 141.329 150.14 130.5C150.14 119.671 141.329 110.86 130.5 110.86C119.67 110.86 110.859 119.67 110.859 130.5C110.859 141.33 119.671 150.14 130.5 150.14ZM130.5 119.499C136.566 119.499 141.501 124.434 141.501 130.501C141.501 136.567 136.566 141.502 130.5 141.502C124.433 141.502 119.498 136.567 119.498 130.501C119.498 124.434 124.434 119.499 130.5 119.499Z" fill="white"/>
<path d="M4.31924 134.82H19.3206C21.5437 192.746 68.254 239.457 126.181 241.68V256.681C126.181 259.066 128.115 261 130.5 261C132.886 261 134.819 259.066 134.819 256.681V241.68C192.746 239.457 239.456 192.746 241.679 134.82H256.68C259.066 134.82 260.999 132.885 260.999 130.5C260.999 128.115 259.065 126.181 256.68 126.181H241.68C239.457 68.2543 192.746 21.544 134.82 19.3209V4.32004C134.82 1.93433 132.886 0.000793457 130.501 0.000793457C128.115 0.000793457 126.181 1.93484 126.181 4.32004V19.3209C68.2535 21.544 21.5437 68.2548 19.3206 126.181H4.31924C1.93405 126.181 0 128.115 0 130.5C0 132.886 1.93405 134.82 4.31924 134.82ZM42.7765 126.181H27.9647C30.1776 73.0181 73.0183 30.1784 126.18 27.9655V42.7773C126.18 45.1635 128.114 47.0965 130.499 47.0965C132.885 47.0965 134.819 45.163 134.819 42.7773V27.9655C187.982 30.1784 230.822 73.0191 233.034 126.181H218.223C215.837 126.181 213.903 128.115 213.903 130.5C213.903 132.885 215.837 134.82 218.223 134.82H233.034C230.822 187.982 187.981 230.822 134.819 233.035V218.223C134.819 215.837 132.885 213.904 130.5 213.904C128.115 213.904 126.181 215.838 126.181 218.223V233.035C73.0183 230.822 30.1776 187.981 27.9647 134.82H42.7765C45.1622 134.82 47.0957 132.885 47.0957 130.5C47.0957 128.115 45.1627 126.181 42.7765 126.181Z" fill="white"/>
</g>
<defs>
<clipPath id="clip0_75_4317">
<rect width="261" height="261" fill="white"/>
</clipPath>
</defs>
</svg>
