<svg width="127" height="125" viewBox="0 0 127 125" fill="none" xmlns="http://www.w3.org/2000/svg">
<g clip-path="url(#clip1_103_2317)">
<path d="M63.4935 108.986C50.8943 108.986 38.296 108.963 25.6968 108.999C21.3175 109.012 17.4833 106.108 16.3443 101.887C15.708 99.5297 15.9585 97.2444 17.0552 95.0485C18.4327 92.2915 19.7825 89.5215 21.1481 86.7589C23.0974 82.8141 25.0513 78.8711 27.0025 74.9263C29.8965 69.0721 32.7897 63.2171 35.6828 57.362C39.412 49.8142 43.1403 42.2664 46.8704 34.7195C49.0177 30.3756 51.1816 26.0401 53.3086 21.687C54.7248 18.789 56.9255 16.8806 60.1022 16.2162C64.452 15.3058 68.5928 17.3239 70.6748 21.2595C73.9454 27.4407 77.2437 33.6063 80.5291 39.7793C83.9019 46.1163 87.273 52.4551 90.6467 58.7921C94.1283 65.3309 97.6144 71.867 101.096 78.4067C104.036 83.9291 106.982 89.4496 109.908 94.9803C112.943 100.717 109.342 107.887 102.939 108.87C102.426 108.948 101.902 108.983 101.383 108.983C88.7536 108.99 76.124 108.988 63.4944 108.989L63.4935 108.986ZM63.5064 103.75V103.747C75.4306 103.747 87.3549 103.75 99.2792 103.739C99.8565 103.739 100.445 103.672 101.009 103.547C103.963 102.9 106.11 99.6725 105.652 96.6796C105.466 95.4604 104.884 94.4256 104.322 93.3724C100.574 86.3332 96.8207 79.2959 93.0712 72.2567C89.9644 66.4229 86.8614 60.5862 83.7564 54.7515C80.8385 49.2677 77.9205 43.785 75.0006 38.3022C72.5348 33.6736 70.0937 29.0312 67.5855 24.4257C66.4023 22.2537 64.4677 21.2079 62.0064 21.2668C59.5212 21.3267 57.6861 22.5219 56.5691 24.7427C54.9909 27.8803 53.4513 31.0382 51.8943 34.1869C47.6945 42.681 43.4939 51.1761 39.2932 59.6703C36.4922 65.3346 33.6911 70.998 30.8891 76.6623C27.9251 82.6547 24.962 88.647 21.998 94.6403C21.2908 96.0714 21.0799 97.5688 21.5192 99.1104C22.3414 101.995 24.6876 103.749 27.6885 103.75C39.6284 103.754 51.5674 103.752 63.5073 103.752L63.5064 103.75Z" fill="#CC3132"/>
<path d="M63.5061 103.75C51.5662 103.75 39.6272 103.752 27.6873 103.748C24.6873 103.747 22.3402 101.993 21.5179 99.1085C21.0787 97.5678 21.2896 96.0695 21.9968 94.6384C24.9599 88.646 27.9239 82.6528 30.8879 76.6604C33.689 70.9961 36.4909 65.3327 39.292 59.6684C43.4927 51.1742 47.6924 42.68 51.893 34.185C53.4501 31.0363 54.9887 27.8784 56.5679 24.7407C57.6857 22.52 59.52 21.3248 62.0052 21.2649C64.4665 21.206 66.401 22.2518 67.5843 24.4238C70.0925 29.0293 72.5335 33.6717 74.9994 38.3003C77.9202 43.7821 80.8372 49.2658 83.7552 54.7495C86.8601 60.5843 89.9632 66.421 93.07 72.2548C96.8185 79.294 100.573 86.3313 104.321 93.3705C104.882 94.4237 105.464 95.4594 105.651 96.6776C106.108 99.6706 103.962 102.898 101.008 103.545C100.444 103.669 99.8553 103.736 99.2779 103.737C87.3537 103.748 75.4294 103.745 63.5052 103.745V103.748L63.5061 103.75ZM63.4545 101.837C75.132 101.837 86.8104 101.837 98.4879 101.837C98.8719 101.837 99.2559 101.847 99.6389 101.828C102.811 101.67 104.756 98.3031 103.28 95.5009C101.693 92.4886 100.084 89.4892 98.4833 86.4843C95.4705 80.8255 92.4567 75.1667 89.443 69.5088C86.409 63.8113 83.374 58.1138 80.34 52.4154C77.3419 46.7843 74.3457 41.1522 71.3475 35.5211C69.5529 32.1503 67.7555 28.7814 65.9581 25.4125C65.5733 24.691 65.0263 24.1197 64.3109 23.7234C62.112 22.5071 59.4555 23.3042 58.3008 25.5609C57.3165 27.4849 56.3847 29.4366 55.4261 31.3745C52.2107 37.8755 48.9935 44.3756 45.7771 50.8766C41.942 58.629 38.1069 66.3804 34.2737 74.1337C30.7397 81.2807 27.2066 88.4286 23.6772 95.5774C23.2196 96.5044 23.0778 97.4895 23.343 98.4883C23.9065 100.611 25.5363 101.837 27.7314 101.837C39.6391 101.837 51.5477 101.837 63.4554 101.837H63.4545Z" fill="#FDFEFE"/>
<path d="M63.4544 101.837C51.5467 101.837 39.6381 101.837 27.7304 101.837C25.5352 101.837 23.9054 100.611 23.3419 98.4882C23.0767 97.4894 23.2185 96.5043 23.6762 95.5773C27.2065 88.4285 30.7396 81.2806 34.2726 74.1336C38.1059 66.3803 41.941 58.6289 45.7761 50.8765C48.9924 44.3755 52.2097 37.8754 55.4251 31.3744C56.3836 29.4365 57.3155 27.4848 58.2998 25.5608C59.4545 23.3041 62.1119 22.5061 64.3098 23.7233C65.0253 24.1196 65.5722 24.6909 65.9571 25.4124C67.7545 28.7813 69.5519 32.1502 71.3465 35.521C74.3446 41.1521 77.3409 46.7842 80.339 52.4154C83.373 58.1138 86.4079 63.8112 89.4419 69.5087C92.4557 75.1675 95.4685 80.8254 98.4823 86.4842C100.083 89.4891 101.692 92.4885 103.279 95.5008C104.755 98.303 102.81 101.67 99.6379 101.828C99.2548 101.847 98.8708 101.837 98.4869 101.837C86.8094 101.837 75.131 101.837 63.4535 101.837H63.4544ZM63.4664 80.2172V80.2191C63.8651 80.2191 64.2647 80.2191 64.6634 80.2191C65.3264 80.2191 65.319 80.2181 65.4 79.5482C65.6293 77.6601 65.8595 75.772 66.1008 73.8857C66.5731 70.1888 67.0575 66.4937 67.5308 62.7967C68.1366 58.0649 68.7434 53.3341 69.3291 48.6004C69.4165 47.8909 69.5003 47.151 69.399 46.4525C69.1523 44.7551 68.0418 43.7249 66.4709 43.2365C64.3614 42.5814 62.2261 42.6228 60.1488 43.3867C58.3274 44.0566 57.3523 45.6075 57.5475 47.4375C57.7326 49.1764 57.9665 50.9097 58.1875 52.6448C58.5097 55.1696 58.8449 57.6936 59.1663 60.2193C59.5585 63.3081 59.9351 66.3988 60.3283 69.4875C60.762 72.8961 61.2196 76.3019 61.6322 79.7132C61.6856 80.1518 61.8347 80.2504 62.2242 80.2246C62.6367 80.1979 63.052 80.2181 63.4664 80.2181V80.2172ZM63.5262 82.1588C60.3688 82.0132 57.5153 84.867 57.5779 88.1014C57.6414 91.368 60.1773 93.9177 63.4516 93.9942C66.6017 94.0679 69.4699 91.3652 69.4681 88.1272C69.4672 84.7933 66.854 82.1624 63.5262 82.1578V82.1588Z" fill="#CC3132"/>
<path d="M63.4669 80.2173C63.0525 80.2173 62.6373 80.1961 62.2248 80.2237C61.8343 80.2495 61.6852 80.1509 61.6327 79.7123C61.2192 76.301 60.7625 72.8952 60.3288 69.4867C59.9357 66.3979 59.5581 63.3073 59.1668 60.2185C58.8464 57.6927 58.5103 55.1697 58.188 52.6439C57.967 50.9097 57.7331 49.1755 57.548 47.4367C57.3528 45.6066 58.328 44.0567 60.1493 43.3859C62.2266 42.622 64.3619 42.5805 66.4714 43.2357C68.0423 43.724 69.1528 44.7543 69.3996 46.4516C69.5009 47.1501 69.418 47.89 69.3296 48.5996C68.744 53.3332 68.1362 58.065 67.5313 62.7958C67.058 66.4928 66.5746 70.1879 66.1013 73.8849C65.86 75.7712 65.6298 77.6593 65.4006 79.5474C65.3195 80.2173 65.3269 80.2182 64.6639 80.2182C64.2652 80.2182 63.8656 80.2182 63.4669 80.2182V80.2164V80.2173Z" fill="#FDFEFE"/>
<path d="M63.5275 82.1588C66.8562 82.1634 69.4684 84.7943 69.4694 88.1282C69.4703 91.3653 66.6029 94.068 63.4529 93.9952C60.1786 93.9187 57.6427 91.369 57.5792 88.1024C57.5156 84.868 60.3692 82.0142 63.5275 82.1598V82.1588Z" fill="#FDFEFE"/>
</g>
<defs>
<filter id="filter0_f_103_2317" x="0" y="-0.00134277" width="127" height="125" filterUnits="userSpaceOnUse" color-interpolation-filters="sRGB">
<feFlood flood-opacity="0" result="BackgroundImageFix"/>
<feBlend mode="normal" in="SourceGraphic" in2="BackgroundImageFix" result="shape"/>
<feGaussianBlur stdDeviation="3.5" result="effect1_foregroundBlur_103_2317"/>
</filter>
<clipPath id="clip0_103_2317">
<rect width="103" height="101" fill="white" transform="translate(12 11.9987)"/>
</clipPath>
<clipPath id="clip1_103_2317">
<rect width="95" height="93" fill="white" transform="translate(16 15.9987)"/>
</clipPath>
</defs>
</svg>
