<svg width="231" height="231" viewBox="0 0 231 231" fill="none" xmlns="http://www.w3.org/2000/svg">
<g clip-path="url(#clip0_37_1380)">
<path d="M217.92 162.501C217.278 156.607 216.409 150.938 215.349 145.531C212.666 131.55 208.662 119.227 204.541 108.912C195.659 86.8407 186.023 73.9159 186.023 73.9159C186.023 73.9159 190.483 67.4903 191.655 43.4528C191.767 41.7916 191.804 40.0902 191.843 38.2743C192.334 18.7354 184.89 5.81063 179.031 1.57729C176.387 -0.386214 174.08 -0.537807 172.983 1.23755C171.587 3.39325 166.56 10.8001 160.739 19.1892C160.21 19.9093 159.68 20.6659 159.152 21.4591C149.665 35.1774 138.818 50.6716 138.818 50.6716H115.5H92.1817C92.1817 50.6716 81.3346 35.1779 71.8478 21.4591C71.3199 20.6659 70.7902 19.9093 70.261 19.1892C64.4404 10.801 59.4135 3.3937 58.0167 1.23801C56.9208 -0.537356 54.6139 -0.385763 51.9692 1.57774C46.1102 5.81108 38.6659 18.7358 39.1568 38.2747C39.1956 40.0907 39.2326 41.792 39.3449 43.4533C40.5166 67.4908 44.9769 73.9164 44.9769 73.9164C44.9769 73.9164 35.3403 86.8415 26.4585 108.912C22.338 119.228 18.3334 131.551 15.6503 145.531C14.5914 150.938 13.722 156.608 13.0799 162.502C13.0411 162.767 13.0411 163.07 13.0042 163.336L13.5338 163.295L13.8348 163.259H14.2886L35.5289 161.938L32.6946 184.838L55.0678 181.362L58.8473 197.727L75.2289 189.09C80.4656 203.141 87.351 220.978 90.2335 225.669C95.1684 233.722 106.034 231.423 113.935 226.824C114.521 226.481 115.007 226.171 115.445 225.876C115.882 226.171 116.366 226.481 116.958 226.824C124.858 231.423 135.72 233.722 140.656 225.669C143.539 220.974 150.466 203.122 155.736 189.072L172.153 197.727L175.932 181.362L198.305 184.839L195.471 161.938L216.711 163.259H217.165L217.466 163.296L217.995 163.336C217.958 163.07 217.958 162.767 217.92 162.501ZM58.1313 65.8963C52.3459 59.2127 49.9154 42.9182 51.8753 35.2893C53.1043 30.4798 57.8227 28.491 60.7756 31.8866C63.7353 35.2857 74.1158 54.2818 74.1158 54.2818C74.1158 54.2818 59.5872 65.1695 58.1313 65.8963ZM75.8172 148.61C75.8172 148.61 69.5188 135.382 68.2587 130.344C84.0051 130.344 90.3052 139.162 92.8241 141.682L96.6031 149.872L75.8172 148.61ZM127.97 205.764C123.155 211.898 118.66 212.09 115.498 212.09C112.337 212.09 107.845 211.898 103.025 205.764C99.1626 200.852 102.322 194.873 107.244 194.873C108.999 194.873 115.498 194.873 115.498 194.873C115.498 194.873 122.001 194.873 123.756 194.873C128.68 194.873 131.841 200.852 127.97 205.764ZM155.183 148.61L134.396 149.872L138.176 141.682C140.695 139.162 146.995 130.344 162.741 130.344C161.481 135.382 155.183 148.61 155.183 148.61ZM172.863 65.8963C171.409 65.1695 156.883 54.2818 156.883 54.2818C156.883 54.2818 167.261 35.2857 170.217 31.8866C173.172 28.491 177.889 30.4803 179.123 35.2893C181.085 42.9182 178.648 59.2122 172.863 65.8963Z" fill="white"/>
</g>
<defs>
<clipPath id="clip0_37_1380">
<rect width="231" height="231" fill="white"/>
</clipPath>
</defs>
</svg>
